<svg viewBox="0 0 1200 230" xmlns="http://www.w3.org/2000/svg">
<rect width="1200" height="230" fill="#0B0F14"/>
<defs><pattern id="grid" width="26" height="26" patternUnits="userSpaceOnUse"><circle cx="1" cy="1" r="1" fill="#1B232C"/></pattern></defs>
<rect width="1200" height="230" fill="url(#grid)"/>
<defs><linearGradient id="edge" x1="0" y1="0" x2="1" y2="0"><stop offset="0%" stop-color="#E8A33D"/><stop offset="55%" stop-color="#E8A33D"/><stop offset="100%" stop-color="#4FD1C5"/></linearGradient></defs>
<rect width="1200" height="3" fill="url(#edge)"/>
<circle cx="90" cy="95" r="30" fill="#111820" stroke="#4FD1C5" stroke-width="1.6"/>
<g stroke="#4FD1C5" stroke-width="2" fill="none">
<path d="M75,95 C82,84 98,84 105,95 C98,106 82,106 75,95 Z"/>
<circle cx="90" cy="95" r="4.5" fill="#4FD1C5" stroke="none"/>
</g>
<text x="140" y="70" font-family="Consolas, Menlo, monospace" font-size="12.5" letter-spacing="1.5" fill="#3AA79C">GRADUATION PROJECT &#183; IN PROGRESS</text>
<text x="140" y="106" font-family="Segoe UI, Helvetica, Arial, sans-serif" font-weight="700" font-size="26" fill="#E9EEF3">AI-Based Driver Safety and Assistance System</text>
<text x="60" y="150" font-family="Segoe UI, Helvetica, Arial, sans-serif" font-size="14.5" fill="#8DA0B0">Real-time drowsiness detection via facial signal extraction (EAR, MAR, PERCLOS),</text>
<text x="60" y="172" font-family="Segoe UI, Helvetica, Arial, sans-serif" font-size="14.5" fill="#8DA0B0">5-person team, supervised by Dr. Kamel Elhadad.</text>
<rect x="60" y="188" width="130" height="24" rx="12" fill="none" stroke="#4FD1C5" stroke-width="1.2"/>
<text x="125.0" y="204" text-anchor="middle" font-family="Consolas, Menlo, monospace" font-size="11" letter-spacing="0.5" fill="#4FD1C5">CNN / LSTM / GRU</text>
<rect x="200" y="188" width="110" height="24" rx="12" fill="none" stroke="#4FD1C5" stroke-width="1.2"/>
<text x="255.0" y="204" text-anchor="middle" font-family="Consolas, Menlo, monospace" font-size="11" letter-spacing="0.5" fill="#4FD1C5">YOLO FAMILY</text>
<rect x="320" y="188" width="100" height="24" rx="12" fill="none" stroke="#4FD1C5" stroke-width="1.2"/>
<text x="370.0" y="204" text-anchor="middle" font-family="Consolas, Menlo, monospace" font-size="11" letter-spacing="0.5" fill="#4FD1C5">EAR / MAR</text>
<rect x="430" y="188" width="110" height="24" rx="12" fill="none" stroke="#4FD1C5" stroke-width="1.2"/>
<text x="485.0" y="204" text-anchor="middle" font-family="Consolas, Menlo, monospace" font-size="11" letter-spacing="0.5" fill="#4FD1C5">PERCLOS</text>

</svg>
